<svg width="147" height="124" viewBox="0 0 147 124" fill="none" xmlns="http://www.w3.org/2000/svg">
<path d="M42.4102 13.7305C34.8931 17.8354 28.0687 23.7106 22.2449 31.1764C19.7819 34.3577 17.5243 37.7699 15.5488 41.336C10.3663 40.2072 5.72264 37.1798 2.84921 32.4848C-3.07725 22.864 0.540202 9.88219 10.9307 3.49392C21.3213 -2.89434 34.534 -0.277462 40.4348 9.34341C41.2814 10.7545 41.9228 12.2168 42.4102 13.7305Z" fill="#876857"/>
<path d="M73.0688 113.454C55.1868 113.454 41.2301 106.989 41.2301 93.34C41.2301 79.6912 55.1611 64.0669 73.0688 64.0412V8.93286C71.8117 8.88155 70.5545 8.8559 69.2717 8.8559C32.6354 8.8559 7.0824 46.3132 7.0824 79.9477C7.0824 109.221 27.4273 123.434 69.2717 123.434C70.5289 123.434 71.8117 123.408 73.0688 123.357V113.454ZM33.4821 59.6285C33.4821 56.0623 35.8937 53.1376 38.8954 53.1376C41.8715 53.1376 44.3088 56.0367 44.3088 59.6285C44.3088 63.2203 41.8971 66.1194 38.8954 66.1194C35.9194 66.1194 33.4821 63.2203 33.4821 59.6285Z" fill="#876857"/>
<path d="M73.0687 72.8925C66.8857 72.8925 60.7284 74.0213 60.7284 76.279C60.7284 80.8201 66.27 84.4888 73.0687 84.4888V72.8925Z" fill="#876857"/>
<path d="M103.779 13.7305C111.296 17.8354 118.12 23.7106 123.944 31.1764C126.407 34.3577 128.665 37.7699 130.64 41.336C135.823 40.2072 140.466 37.1798 143.34 32.4848C149.266 22.864 145.649 9.88219 135.258 3.49392C124.868 -2.89434 111.655 -0.277462 105.754 9.34341C104.907 10.7545 104.266 12.2168 103.779 13.7305Z" fill="#876857"/>
<path d="M73.1201 123.306C74.3772 123.357 75.6343 123.383 76.9171 123.383C118.762 123.383 139.106 109.144 139.106 79.8965C139.106 46.2876 113.579 8.80463 76.9171 8.80463C75.66 8.80463 74.3772 8.83029 73.1201 8.8816V64.0156C91.0021 64.0156 104.959 79.6656 104.959 93.3144C104.959 106.963 91.0277 113.428 73.1201 113.428V123.306ZM107.293 66.1194C104.317 66.1194 101.88 63.2203 101.88 59.6285C101.88 56.0367 104.292 53.1376 107.293 53.1376C110.269 53.1376 112.707 56.0367 112.707 59.6285C112.707 63.2203 110.269 66.1194 107.293 66.1194Z" fill="#876857"/>
<path d="M73.1201 72.8925C79.3031 72.8925 85.4604 74.0213 85.4604 76.279C85.4604 80.8201 79.9188 84.4888 73.1201 84.4888V72.8925Z" fill="#876857"/>
</svg>
