<?xml version="1.0" encoding="utf-8"?>
<!-- Generator: Adobe Illustrator 26.0.3, SVG Export Plug-In . SVG Version: 6.00 Build 0)  -->
<svg version="1.1" id="лого_связала_сама"
	 xmlns="http://www.w3.org/2000/svg" xmlns:xlink="http://www.w3.org/1999/xlink" x="0px" y="0px" viewBox="0 0 317.5 142.3"
	 style="enable-background:new 0 0 317.5 142.3;" xml:space="preserve">
<style type="text/css">
	.st0{fill:none;stroke:#AF6352;stroke-width:2;stroke-linecap:round;stroke-linejoin:round;stroke-miterlimit:10;}
	.st1{fill:#AF6352;stroke:#AF6352;stroke-width:2;stroke-linecap:round;stroke-linejoin:round;stroke-miterlimit:10;}
	.st2{fill:#AF6352;stroke:#AF6352;stroke-linecap:round;stroke-linejoin:round;stroke-miterlimit:10;}
	.st3{fill:#AF6352;stroke:#AF6352;stroke-width:0.75;stroke-linecap:round;stroke-linejoin:round;stroke-miterlimit:10;}
</style>
<g>
	<g>
		<line class="st0" x1="100.4" y1="108.1" x2="109.4" y2="124"/>
		<line class="st0" x1="74.5" y1="62.7" x2="94.2" y2="97.2"/>
		<path class="st1" d="M67.4,50.3c-1.4-1.2-4.5-3.4-8.7-3.5c-6.3-0.3-12.4,4.1-15.5,10.9c0,0,0,0,0,0c-2.8-16.6-1.3-28.8,4.1-30.8
			c0.8-0.3,2.2-0.5,4.4,0.3c2.3,0.9,4.1,2.6,5.3,4.7l13.4,23.6"/>
		<path class="st2" d="M40.3,76.2c-3.2,0-6.1,1.6-8.2,4.2c-2.1,2.6-3.4,6.3-3.4,10.2c0-4-1.3-7.6-3.4-10.2c-2.1-2.6-5-4.2-8.2-4.2
			c3.2,0,6.1-1.6,8.2-4.2c2.1-2.6,3.4-6.2,3.4-10.2C28.7,69.7,33.9,76.2,40.3,76.2z"/>
		<path class="st2" d="M130.2,101.8c-2.5,0-4.7,1.3-6.3,3.3c-1.6,2-2.6,4.8-2.6,7.9c0-3.1-1-5.8-2.6-7.9c-1.6-2-3.8-3.3-6.3-3.3
			c2.5,0,4.7-1.2,6.3-3.3c1.6-2,2.6-4.8,2.6-7.9C121.3,96.8,125.3,101.8,130.2,101.8z"/>
		<path class="st2" d="M86.9,24.3c-2.3,0-4.3,1.2-5.8,3c-1.5,1.9-2.4,4.4-2.4,7.3c0-2.8-0.9-5.4-2.4-7.3c-1.5-1.9-3.6-3-5.8-3
			c2.3,0,4.3-1.1,5.8-3c1.5-1.9,2.4-4.4,2.4-7.3C78.6,19.7,82.3,24.3,86.9,24.3z"/>
		<path class="st2" d="M104.7,93.5c-6.4,10.6-15.4,20.2-25.3,26.4c-19.6,12.2-35.5,6.3-35.5-13.3c0-19.6,15.9-45.4,35.5-57.6
			c9.9-6.2,18.8-7.7,25.3-5.2c-4.4,0.1-9.5,1.8-15,5.2c-16,10-29,31.1-29,47.2c0,16,13,20.9,29,10.9
			C95.2,103.6,100.3,98.8,104.7,93.5z"/>
		<path class="st2" d="M111.1,84.4c5.9-10.6,9.3-21.9,9-31.6c-0.4-9.7-4.5-15.9-10.9-18.1c8.4-0.5,14.3,5,14.7,15.5
			C124.3,60.8,119.2,73.7,111.1,84.4z"/>
	</g>
	<g>
		<path class="st3" d="M177.4,62.7c0.2,0.2,0.3,0.5,0.3,0.7c0,0.8-0.5,1.7-1.4,2.7c-1,1.1-2.4,1.9-4,2.6c-1.9,0.8-3.8,1.2-5.9,1.2
			c-4.2,0-7.6-1.4-10.1-4.2c-2.3-2.6-3.5-6-3.5-10.2c0-4.4,1.3-8,4-10.8c2.7-2.8,6.2-4.3,10.4-4.3c1.6,0,3.4,0.3,5.3,0.8
			c1.6,0.5,2.7,0.9,3.2,1.3c0.5,0.4,0.8,0.9,0.8,1.5c0,1.2-0.6,1.9-1.9,1.9c-0.5,0-0.9-0.2-1.3-0.5c-0.9-0.9-1.7-1.5-2.3-1.9
			c-1.3-0.8-2.8-1.1-4.4-1.1c-2.8,0-5.1,1.2-7,3.6c-1.9,2.4-2.8,5.4-2.8,9.1c0,3.7,0.9,6.7,2.8,8.9c1.9,2.3,4.3,3.4,7.4,3.4
			c1.4,0,2.8-0.3,4.2-0.8c1.3-0.5,2.4-1.2,3.2-2.2c0.4-0.6,0.8-1.1,1-1.4c0.4-0.6,0.9-0.8,1.3-0.8C177,62.3,177.2,62.4,177.4,62.7z"
			/>
		<path class="st3" d="M195.2,68.6c-1.5,0.7-3.4,1-5.6,1h-7.2c-1.1,0-1.7-0.6-1.7-1.7V50.7c0-1.1,0.6-1.6,1.7-1.6h6.3
			c2.2,0,3.9,0.3,5.4,1c1.8,0.8,2.7,2.1,2.7,3.8c0,1.5-0.8,2.8-2.5,3.7c-0.6,0.3-1.4,0.6-2.1,0.8c1.7,0.3,3,0.8,4.1,1.5
			c1.6,1,2.4,2.3,2.4,4C198.6,66,197.5,67.6,195.2,68.6z M183.9,52.4v4.9c4.3,0,7.1-0.5,8.3-1.4c0.7-0.5,1-1.3,1-2.3
			c0-0.7-0.4-1.3-1.1-1.8c-1-0.5-2.4-0.8-4.4-0.8C185.5,51,184.3,51.4,183.9,52.4z M193.6,61.1c-1.7-1.1-5-1.6-9.7-1.6v6.7
			c0.4,1,1.7,1.5,3.8,1.5c2.4,0,4.3-0.4,5.7-1.1c1.2-0.7,1.9-1.6,1.9-2.8C195.3,62.7,194.7,61.8,193.6,61.1z"/>
		<path class="st3" d="M215.5,49c1,0,1.6,0.6,1.6,1.7V68c0,1.1-0.6,1.7-1.7,1.7c-1.2,0-1.7-0.6-1.7-1.7v-5.9l0,0
			c-2.2,0-4.2-0.2-6-0.5c-0.3,0.4-0.6,0.7-0.8,1c-1.3,1.6-2.3,3.5-2.8,5.7c-0.2,0.9-0.8,1.4-1.7,1.4c-1.1,0-1.7-0.6-1.7-1.8
			c0-0.9,0.6-2.3,1.8-4.3c0.6-1,1.3-1.9,2.1-3c-2.6-1.2-3.8-3.1-3.8-5.6c0-2.3,1-3.9,3.1-4.9c1.4-0.7,3.2-1,5.2-1H215.5z
			 M213.5,52.5c-0.3-1-1.3-1.5-3-1.5c-2.2,0-3.9,0.4-5.2,1.1c-1,0.7-1.5,1.6-1.5,2.8c0,1.7,0.8,2.9,2.3,3.8c1.7,0.9,4.2,1.4,7.4,1.4
			V52.5z"/>
		<path class="st3" d="M232.7,58.3c2.8,0.7,4.1,2.5,4.1,5.4c0,1.1-0.4,2.2-1.1,3.2c-0.6,0.8-1.6,1.5-3.1,2.2
			c-1.3,0.6-2.7,0.9-4.3,0.9c-1.7,0-3.2-0.3-4.4-0.8c-2.4-1.1-3.7-2.3-4-3.8l0-0.4c0.1-0.8,0.5-1.2,1.3-1.2c0.7,0,1.1,0.3,1.3,1
			c0.5,1,1.2,1.7,2.2,2.2c1.2,0.6,2.4,0.9,3.7,0.9c1.4,0,2.5-0.4,3.3-1.1c1.3-1.2,1.9-2.2,1.9-3.2c0-1-0.6-1.9-1.9-2.8
			c-1-0.7-2.3-1-3.7-1h-2.8c-0.5,0-0.9-0.1-1.2-0.3c-0.2-0.2-0.4-0.4-0.4-0.7c0-0.3,0.1-0.5,0.3-0.7c0.3-0.2,0.6-0.3,1.1-0.3h2.9
			c1.2,0,2.1-0.3,2.9-0.9c0.8-0.6,1.2-1.4,1.2-2.5c0-2.2-1.3-3.3-3.8-3.4h-0.3c-1.8,0-3.4,0.6-4.6,1.9c-0.2,0.3-0.5,0.4-0.9,0.4
			c-0.8,0-1.2-0.4-1.2-1.1c0-0.4,0.2-0.8,0.6-1c1.7-1.3,3.8-2,6.1-2c1.3,0,2.6,0.2,3.7,0.7c1.2,0.4,2.1,1.1,2.9,1.9
			c0.7,0.8,1.1,1.8,1.1,2.9c0,1.1-0.3,2-0.9,2.6C234.4,57.6,233.7,58,232.7,58.3z"/>
		<path class="st3" d="M255,51.4c1.5,1.6,2.3,4.2,2.3,7.8v8.4c0,1-0.5,1.6-1.5,1.6l-0.3,0c-0.9-0.1-1.4-0.7-1.4-1.6v-1.4
			c-1,1.2-2.1,2-3.1,2.6c-1.3,0.7-2.8,1-4.6,1c-1.9,0-3.6-0.6-4.9-1.7c-1.3-1.1-1.9-2.5-1.9-4.2c0-2.6,1-4.5,3.1-5.8
			c2.3-1.4,5.9-2.2,10.9-2.2c-0.2-1.4-0.9-2.6-1.9-3.4c-1-0.8-2.3-1.3-3.9-1.3c-0.6,0-1.1,0.1-1.5,0.2c-0.4,0.1-1.1,0.4-2,0.9
			c-0.7,0.4-1.2,0.6-1.4,0.7c-0.2,0.1-0.5,0.1-0.8,0.1c-0.3,0-0.6,0-0.7-0.1c-0.3-0.2-0.5-0.5-0.5-1c0-0.9,0.6-1.7,1.8-2.2
			c1.2-0.5,2.9-0.8,5-0.8C251,49,253.5,49.8,255,51.4z M251.6,66.1c1.6-1.2,2.3-3,2.3-5.5l-0.1-2.4c-0.8-0.1-1.6-0.1-2.3-0.1
			c-2.6,0-4.6,0.4-6,1.3c-1.5,1-2.3,2.4-2.3,4.1c0,1.1,0.4,2,1.2,2.7c0.8,0.7,1.8,1,3,1C249.1,67.3,250.5,66.9,251.6,66.1z"/>
		<path class="st3" d="M278.4,68c0,1.1-0.5,1.6-1.6,1.6c-0.8,0-1.4-0.4-1.6-1.2c-0.9-2.8-1.9-5.7-3-8.9c-1.7-4.7-2.7-7.2-3.1-7.3
			c-0.2,0.2-1.2,2.7-2.9,7.6c-2.1,6.1-3.2,9.2-3.2,9.1c-0.2,0.5-0.6,0.8-1.2,0.8c-0.8,0-1.3-0.4-1.3-1.3l0-0.3
			c0.7-2.2,1.8-5.5,3.5-9.8c2.1-5.5,3.4-8.4,4-8.9c0.4-0.3,0.8-0.5,1.4-0.5h0.1c0.5,0,1.1,0.2,1.6,0.6c0.5,0.4,1.8,3.4,3.9,8.9
			c1.7,4.5,2.8,7.5,3.2,9.1L278.4,68z"/>
		<path class="st3" d="M295.8,51.4c1.5,1.6,2.3,4.2,2.3,7.8v8.4c0,1-0.5,1.6-1.5,1.6l-0.3,0c-0.9-0.1-1.4-0.7-1.4-1.6v-1.4
			c-1,1.2-2.1,2-3.1,2.6c-1.3,0.7-2.8,1-4.6,1c-1.9,0-3.6-0.6-4.9-1.7c-1.3-1.1-1.9-2.5-1.9-4.2c0-2.6,1-4.5,3.1-5.8
			c2.3-1.4,5.9-2.2,10.9-2.2c-0.2-1.4-0.9-2.6-1.9-3.4c-1-0.8-2.3-1.3-3.9-1.3c-0.6,0-1.1,0.1-1.5,0.2c-0.4,0.1-1.1,0.4-2,0.9
			c-0.7,0.4-1.2,0.6-1.4,0.7c-0.2,0.1-0.5,0.1-0.8,0.1c-0.3,0-0.6,0-0.7-0.1c-0.3-0.2-0.5-0.5-0.5-1c0-0.9,0.6-1.7,1.8-2.2
			c1.2-0.5,2.9-0.8,5-0.8C291.8,49,294.3,49.8,295.8,51.4z M292.5,66.1c1.6-1.2,2.3-3,2.3-5.5l-0.1-2.4c-0.8-0.1-1.6-0.1-2.3-0.1
			c-2.6,0-4.6,0.4-6,1.3c-1.5,1-2.3,2.4-2.3,4.1c0,1.1,0.4,2,1.2,2.7c0.8,0.7,1.8,1,3,1C290,67.3,291.4,66.9,292.5,66.1z"/>
		<path class="st3" d="M169.2,109.9c-1.7,1.3-3.7,2-5.9,2c-2.7,0-4.9-0.9-6.7-2.8c-1.8-1.9-2.7-4.2-2.7-7.1c0-3.2,1-5.8,2.9-8
			c1.9-2.1,4.4-3.2,7.2-3.2c1.8,0,3.3,0.4,4.7,1.2c1.3,0.8,2,1.7,2,2.8c0,0.5-0.2,0.9-0.5,1.2s-0.8,0.5-1.2,0.5
			c-0.6,0-1.2-0.3-1.7-0.8c-0.6-0.8-1-1.3-1.1-1.5c-0.6-0.7-1.4-1-2.3-1c-1.6,0-2.8,0.5-3.8,1.4c-0.8,0.8-1.4,1.9-1.8,3.4
			c-0.3,1.2-0.4,2.5-0.4,3.9c0,2.2,0.6,3.9,1.7,5.3c1.2,1.4,2.7,2.1,4.5,2.1c0.8,0,1.6-0.2,2.5-0.5c0.9-0.3,1.5-0.7,2-1.1
			c0.3-0.3,0.6-0.6,0.9-0.9c0.5-0.5,0.9-0.7,1.1-0.7l0.5,0.1c0.3,0.1,0.4,0.4,0.4,0.8C171.4,107.7,170.7,108.8,169.2,109.9z"/>
		<path class="st3" d="M189,93.4c1.5,1.6,2.3,4.2,2.3,7.8v8.4c0,1-0.5,1.6-1.6,1.6l-0.3,0c-0.9-0.1-1.4-0.7-1.4-1.6v-1.4
			c-1,1.2-2.1,2-3.1,2.6c-1.3,0.7-2.8,1-4.6,1c-1.9,0-3.6-0.6-4.9-1.7c-1.3-1.1-1.9-2.5-1.9-4.2c0-2.6,1-4.5,3.1-5.8
			c2.3-1.4,5.9-2.2,10.9-2.2c-0.2-1.4-0.9-2.6-1.9-3.4c-1-0.8-2.3-1.3-3.9-1.3c-0.6,0-1.1,0.1-1.5,0.2c-0.4,0.1-1.1,0.4-2,0.9
			c-0.7,0.4-1.2,0.6-1.4,0.7c-0.2,0.1-0.5,0.1-0.8,0.1c-0.3,0-0.6,0-0.7-0.1c-0.3-0.2-0.5-0.5-0.5-1c0-0.9,0.6-1.7,1.8-2.2
			c1.2-0.5,2.9-0.8,5-0.8C185,91,187.5,91.8,189,93.4z M185.7,108.1c1.6-1.2,2.3-3,2.3-5.5l-0.1-2.4c-0.8-0.1-1.6-0.1-2.3-0.1
			c-2.6,0-4.6,0.4-6,1.3c-1.5,1-2.3,2.4-2.3,4.1c0,1.1,0.4,2,1.2,2.7c0.8,0.7,1.8,1,3,1C183.2,109.3,184.6,108.9,185.7,108.1z"/>
		<path class="st3" d="M216.2,110c0,1.1-0.6,1.6-1.7,1.6c-1.1,0-1.7-0.5-1.7-1.6V95.9l-5.4,12c-0.1,0.3-0.4,0.6-0.7,0.8
			c-0.3,0.2-0.7,0.3-1,0.3c-0.5,0-0.9-0.3-1.3-0.9L197.4,96v14.7c0,0.6-0.3,0.9-0.9,0.9c-0.6,0-0.9-0.3-0.9-0.9V92.6
			c0-1.1,0.5-1.6,1.6-1.6c0.5,0,0.9,0.2,1.2,0.6c0,0,0.1,0.1,0.3,0.4l8,13.4l6.1-13.3c0.4-0.7,0.9-1,1.8-1c1.1,0,1.7,0.5,1.7,1.6
			V110z"/>
		<path class="st3" d="M234.6,93.4c1.5,1.6,2.3,4.2,2.3,7.8v8.4c0,1-0.5,1.6-1.5,1.6l-0.3,0c-0.9-0.1-1.4-0.7-1.4-1.6v-1.4
			c-1,1.2-2.1,2-3.1,2.6c-1.3,0.7-2.8,1-4.6,1c-1.9,0-3.6-0.6-4.9-1.7c-1.3-1.1-1.9-2.5-1.9-4.2c0-2.6,1-4.5,3.1-5.8
			c2.3-1.4,5.9-2.2,10.9-2.2c-0.2-1.4-0.9-2.6-1.9-3.4c-1-0.8-2.3-1.3-3.9-1.3c-0.6,0-1.1,0.1-1.5,0.2c-0.4,0.1-1.1,0.4-2,0.9
			c-0.7,0.4-1.2,0.6-1.4,0.7c-0.2,0.1-0.5,0.1-0.8,0.1c-0.3,0-0.6,0-0.7-0.1c-0.3-0.2-0.5-0.5-0.5-1c0-0.9,0.6-1.7,1.8-2.2
			c1.2-0.5,2.9-0.8,5-0.8C230.6,91,233.1,91.8,234.6,93.4z M231.3,108.1c1.6-1.2,2.3-3,2.3-5.5l-0.1-2.4c-0.8-0.1-1.6-0.1-2.3-0.1
			c-2.6,0-4.6,0.4-6,1.3c-1.5,1-2.3,2.4-2.3,4.1c0,1.1,0.4,2,1.2,2.7c0.8,0.7,1.8,1,3,1C228.8,109.3,230.2,108.9,231.3,108.1z"/>
	</g>
</g>
</svg>
