<?xml version="1.0" encoding="utf-8"?>
<!-- Generator: Adobe Illustrator 26.0.3, SVG Export Plug-In . SVG Version: 6.00 Build 0)  -->
<svg version="1.1" xmlns="http://www.w3.org/2000/svg" xmlns:xlink="http://www.w3.org/1999/xlink" x="0px" y="0px"
	 viewBox="0 0 147.4 142.3" style="enable-background:new 0 0 147.4 142.3;" xml:space="preserve">
<style type="text/css">
	.st0{fill:none;stroke:#AF6352;stroke-width:2;stroke-linecap:round;stroke-linejoin:round;stroke-miterlimit:10;}
	.st1{fill:#AF6352;stroke:#AF6352;stroke-width:2;stroke-linecap:round;stroke-linejoin:round;stroke-miterlimit:10;}
	.st2{fill:#AF6352;stroke:#AF6352;stroke-linecap:round;stroke-linejoin:round;stroke-miterlimit:10;}
	.st3{display:none;}
	.st4{display:inline;}
	.st5{font-family:'Philosopher-Regular';}
	.st6{font-size:21px;}
</style>
<g id="Слой_1">
</g>
<g id="Слой_2">
	<g>
		<line class="st0" x1="100.4" y1="109.1" x2="109.4" y2="125"/>
		<line class="st0" x1="74.5" y1="63.7" x2="94.2" y2="98.2"/>
		<path class="st1" d="M67.5,51.3c-1.4-1.2-4.5-3.4-8.7-3.5c-6.3-0.3-12.4,4.1-15.5,10.9c0,0,0,0,0,0c-2.8-16.6-1.3-28.8,4.1-30.8
			c0.8-0.3,2.2-0.5,4.4,0.3c2.3,0.9,4.1,2.6,5.3,4.7l13.4,23.6"/>
		<path class="st2" d="M40.4,77.2c-3.2,0-6.1,1.6-8.2,4.2c-2.1,2.6-3.4,6.3-3.4,10.2c0-4-1.3-7.6-3.4-10.2c-2.1-2.6-5-4.2-8.2-4.2
			c3.2,0,6.1-1.6,8.2-4.2c2.1-2.6,3.4-6.2,3.4-10.2C28.8,70.7,34,77.2,40.4,77.2z"/>
		<path class="st2" d="M130.2,102.8c-2.5,0-4.7,1.3-6.3,3.3c-1.6,2-2.6,4.8-2.6,7.9c0-3.1-1-5.8-2.6-7.9c-1.6-2-3.8-3.3-6.3-3.3
			c2.5,0,4.7-1.2,6.3-3.3c1.6-2,2.6-4.8,2.6-7.9C121.3,97.8,125.3,102.8,130.2,102.8z"/>
		<path class="st2" d="M86.9,25.3c-2.3,0-4.3,1.2-5.8,3c-1.5,1.9-2.4,4.4-2.4,7.3c0-2.8-0.9-5.4-2.4-7.3c-1.5-1.9-3.6-3-5.8-3
			c2.3,0,4.3-1.1,5.8-3c1.5-1.9,2.4-4.4,2.4-7.3C78.7,20.7,82.4,25.3,86.9,25.3z"/>
		<path class="st2" d="M104.7,94.5c-6.4,10.6-15.4,20.2-25.3,26.4C59.9,133.1,44,127.2,44,107.6C44,88,59.9,62.2,79.4,49.9
			c9.9-6.2,18.8-7.7,25.3-5.2c-4.4,0.1-9.5,1.8-15,5.2c-16,10-29,31.1-29,47.2c0,16,13,20.9,29,10.9
			C95.2,104.6,100.4,99.8,104.7,94.5z"/>
		<path class="st2" d="M111.2,85.4c5.9-10.6,9.3-21.9,9-31.6c-0.4-9.7-4.5-15.9-10.9-18.1c8.4-0.5,14.3,5,14.7,15.5
			C124.3,61.8,119.2,74.7,111.2,85.4z"/>
	</g>
	<text transform="matrix(1 0 0 1 115.1415 52.0883)" class="st3"><tspan x="0" y="0" class="st4 st5 st6">Связала </tspan><tspan x="0" y="25.2" class="st4 st5 st6">сама</tspan></text>
</g>
</svg>
